<?xml version="1.0" encoding="utf-8"?>
<!-- Generator: Adobe Illustrator 21.1.0, SVG Export Plug-In . SVG Version: 6.00 Build 0)  -->
<svg version="1.1" id="圖層_1" xmlns="http://www.w3.org/2000/svg" xmlns:xlink="http://www.w3.org/1999/xlink" x="0px" y="0px"
	 viewBox="0 0 128 128" style="enable-background:new 0 0 128 128;" xml:space="preserve">
<style type="text/css">
	.st0{fill:#69B042;}
	.st1{fill:none;stroke:#FFFFFF;stroke-miterlimit:10;}
	.st2{fill:#6BB93F;}
	.st3{fill:#3D552E;}
</style>
<g>
	<g id="XMLID_1_">
		<g>
			<path class="st0" d="M64,71.8C68.5,68,74.4,64,79.4,61.6c10-4.6,28,29.1,21.1,31.3c-6.9,2.2-27.4,13.7-28.9,13.6s0,20.7,0,20.7
				H56.3c0,0,1.5-20.8,0-20.7c-0.5,0-3.1-1.2-6.6-3c-7-3.5-17.7-9.1-22.3-10.6C20.6,90.7,38.6,57,48.5,61.6
				C53.6,63.9,59.5,68,64,71.8z"/>
		</g>
		<g>
			<path class="st1" d="M64,71.8C64,71.8,64,71.8,64,71.8"/>
			<path class="st1" d="M64,71.8c-4.5-3.8-10.4-7.9-15.5-10.3c-10-4.6-28,29.1-21.1,31.3c4.6,1.5,15.2,7.1,22.3,10.6
				c3.5,1.8,6.1,3,6.6,3c1.5-0.1,0,20.7,0,20.7h15.3c0,0-1.5-20.8,0-20.7s22-11.4,28.9-13.6c6.9-2.2-11.1-35.9-21.1-31.3
				C74.4,64,68.5,68,64,71.8z"/>
			<path class="st1" d="M50.7,82.8c0,0,7.1,9,9.2,8.9c0,0,10.4-8.6,11.2-11.3c0.4-1.3-2.7-4.8-7-8.5"/>
		</g>
	</g>
	<g id="XMLID_2_">
		<g>
			<path class="st2" d="M64.1,0.7c17.9,0,32.4,14.5,32.4,32.3c0,17.8-14.5,32.3-32.4,32.3S31.7,50.8,31.7,33
				C31.7,15.1,46.2,0.7,64.1,0.7z M85.8,38.2c0-12-9.8-21.8-21.8-21.8c-12.1,0-21.8,9.8-21.8,21.8c0,12,9.8,21.8,21.8,21.8
				C76,60,85.8,50.2,85.8,38.2z"/>
			<path class="st3" d="M64,16.5c12,0,21.8,9.8,21.8,21.8C85.8,50.2,76,60,64,60c-12.1,0-21.8-9.8-21.8-21.8
				C42.2,26.2,51.9,16.5,64,16.5z"/>
		</g>
		<g>
			<path class="st1" d="M64.1,0.7C46.2,0.7,31.7,15.1,31.7,33c0,17.8,14.5,32.3,32.4,32.3S96.4,50.8,96.4,33
				C96.4,15.1,81.9,0.7,64.1,0.7z"/>
			<path class="st1" d="M64,60c-12.1,0-21.8-9.8-21.8-21.8c0-12,9.8-21.8,21.8-21.8c12,0,21.8,9.8,21.8,21.8C85.8,50.2,76,60,64,60z
				"/>
		</g>
	</g>
</g>
</svg>
